<svg width="128" height="128" viewBox="0 0 128 128" fill="none" xmlns="http://www.w3.org/2000/svg">
<path fill-rule="evenodd" clip-rule="evenodd" d="M88.038 42.812C89.643 47.455 90.799 52.195 91.179 57.108C91.651 63.203 91.435 69.255 90.15 75.25C90.115 75.415 90.041 75.57 89.986 75.73C89.583 75.731 89.172 75.681 88.778 75.742C85.449 76.265 82.123 76.807 78.797 77.346C75.359 77.903 71.916 78.438 68.484 79.033C67.268 79.243 65.763 78.992 65.272 80.674C65.258 80.72 65.118 80.728 65.037 80.754L65.203 70.703L65.034 46.451L66.636 46.176C69.256 45.747 71.876 45.312 74.498 44.895C77.627 44.398 80.759 43.915 83.89 43.43C85.271 43.215 86.654 43.018 88.038 42.812Z" fill="#439934"/>
<path fill-rule="evenodd" clip-rule="evenodd" d="M61.729 110.054C60.039 108.601 58.29 107.212 56.67 105.684C47.953 97.462 41.577 87.785 38.437 76.118C37.572 72.907 36.995 69.644 36.81 66.326C36.68 64.004 36.492 61.661 36.656 59.351C37.093 53.207 37.981 47.122 39.783 41.204L39.882 41.066C40.057 41.299 40.309 41.505 40.398 41.768C42.157 46.948 43.903 52.132 45.64 57.319C51.098 73.619 56.549 89.923 62.016 106.219C62.123 106.537 62.4 106.798 62.599 107.085L61.729 110.054Z" fill="#45A538"/>
<path fill-rule="evenodd" clip-rule="evenodd" d="M88.038 42.812C86.654 43.018 85.27 43.215 83.889 43.428C80.758 43.913 77.626 44.396 74.497 44.893C71.875 45.31 69.255 45.745 66.635 46.174L65.033 46.449L65.021 45.404C64.968 44.545 64.877 43.687 64.867 42.828C64.798 37.35 64.755 31.872 64.687 26.394C64.645 22.965 64.582 19.537 64.512 16.109C64.469 13.979 64.423 11.848 64.327 9.72097C64.275 8.57797 64.091 7.44097 64.016 6.29797C63.974 5.64097 64.032 4.97897 64.045 4.31897C64.862 5.90197 65.661 7.49697 66.501 9.06797C67.828 11.552 69.942 13.382 71.845 15.379C79.368 23.271 84.709 32.447 88.038 42.812Z" fill="#46A037"/>
<path fill-rule="evenodd" clip-rule="evenodd" d="M65.036 80.753C65.117 80.727 65.258 80.719 65.271 80.673C65.762 78.991 67.267 79.242 68.483 79.032C71.915 78.438 75.358 77.902 78.796 77.345C82.122 76.806 85.448 76.264 88.777 75.741C89.171 75.679 89.582 75.73 89.985 75.729C89.363 77.949 88.873 80.217 88.084 82.376C87.188 84.825 86.104 87.215 84.953 89.558C83.2299 93.0527 81.0972 96.33 78.6 99.321C76.681 101.629 74.542 103.762 72.398 105.869C71.213 107.034 69.816 107.983 68.516 109.03L68.179 108.8L66.965 107.762L65.709 105.009C64.8511 101.798 64.383 98.4944 64.315 95.171L64.338 94.61L64.509 92.184C64.566 91.356 64.642 90.529 64.677 89.699C64.806 86.717 64.918 83.735 65.036 80.753Z" fill="#409433"/>
<path fill-rule="evenodd" clip-rule="evenodd" d="M65.036 80.753C64.918 83.735 64.806 86.717 64.679 89.7C64.644 90.53 64.568 91.357 64.511 92.185L63.746 92.474C62.047 87.472 60.347 82.523 58.684 77.561C55.934 69.352 53.217 61.13 50.471 52.919C48.2531 46.2915 46.0198 39.6691 43.771 33.052C43.666 32.742 43.364 32.5 43.154 32.226L48.05 23.224C48.218 23.516 48.44 23.789 48.546 24.103C50.8135 30.8051 53.0695 37.5111 55.314 44.221C58.23 52.951 61.128 61.688 64.042 70.419C64.158 70.768 64.35 71.09 64.533 71.481L65.203 70.701L65.036 80.753Z" fill="#4FAA41"/>
<path fill-rule="evenodd" clip-rule="evenodd" d="M43.155 32.227C43.365 32.501 43.666 32.743 43.772 33.053C46.0208 39.6701 48.2541 46.2925 50.472 52.92C53.218 61.131 55.935 69.353 58.685 77.562C60.347 82.523 62.047 87.473 63.747 92.475L64.512 92.186L64.341 94.612L64.186 95.171C63.92 97.827 63.696 100.489 63.372 103.139C63.209 104.467 62.863 105.771 62.6 107.086C62.402 106.799 62.124 106.538 62.017 106.22C56.55 89.923 51.099 73.62 45.641 57.32C43.9046 52.1326 42.1573 46.949 40.399 41.769C40.31 41.506 40.059 41.3 39.883 41.067L43.155 32.227Z" fill="#4AA73C"/>
<path fill-rule="evenodd" clip-rule="evenodd" d="M65.202 70.702L64.532 71.482C64.349 71.091 64.157 70.768 64.041 70.42C61.128 61.689 58.229 52.952 55.313 44.222C53.0686 37.5121 50.8125 30.8061 48.545 24.104C48.44 23.79 48.218 23.516 48.049 23.225L54.104 15.26C54.295 15.515 54.567 15.742 54.666 16.029C56.347 20.95 58.013 25.877 59.669 30.807C61.216 35.411 62.74 40.022 64.305 44.62C64.41 44.928 64.775 45.146 65.019 45.406L65.031 46.451C65.089 54.533 65.146 62.618 65.202 70.702Z" fill="#57AE47"/>
<path fill-rule="evenodd" clip-rule="evenodd" d="M65.021 45.404C64.777 45.144 64.412 44.926 64.307 44.618C62.742 40.02 61.218 35.409 59.671 30.805C58.015 25.875 56.349 20.949 54.668 16.027C54.569 15.74 54.297 15.513 54.106 15.258C56.075 13.33 57.983 11.333 60.031 9.49402C61.852 7.86002 63.316 6.10802 63.383 3.52602C63.386 3.41902 63.442 3.31202 63.528 3.01202L64.047 4.31802C64.034 4.97902 63.975 5.64002 64.018 6.29702C64.093 7.44002 64.277 8.57702 64.329 9.72002C64.425 11.847 64.471 13.978 64.514 16.108C64.583 19.536 64.646 22.964 64.689 26.393C64.756 31.871 64.8 37.349 64.869 42.827C64.877 43.688 64.967 44.545 65.021 45.404Z" fill="#60B24F"/>
<path fill-rule="evenodd" clip-rule="evenodd" d="M62.598 107.085C62.861 105.77 63.207 104.465 63.37 103.138C63.695 100.489 63.918 97.826 64.184 95.17L64.25 95.16L64.316 95.171C64.3841 98.4944 64.8521 101.798 65.71 105.009C65.534 105.241 65.285 105.448 65.192 105.71C64.465 107.76 63.78 109.826 63.049 111.876C62.949 112.156 62.671 112.374 62.475 112.62L61.728 110.054L62.598 107.085Z" fill="#A9AA88"/>
<path fill-rule="evenodd" clip-rule="evenodd" d="M62.476 112.621C62.672 112.375 62.951 112.157 63.05 111.877C63.781 109.827 64.467 107.762 65.193 105.711C65.286 105.449 65.534 105.242 65.711 105.01L66.966 107.764C66.718 108.116 66.376 108.433 66.238 108.825L63.834 115.884C63.735 116.167 63.397 116.367 63.171 116.606L62.476 112.621Z" fill="#B6B598"/>
<path fill-rule="evenodd" clip-rule="evenodd" d="M63.171 116.605C63.398 116.367 63.735 116.166 63.834 115.883L66.238 108.824C66.375 108.433 66.718 108.115 66.966 107.763L68.181 108.8C67.594 109.38 67.268 110.05 67.464 110.897L67.095 112.105C66.927 112.312 66.684 112.492 66.601 112.729C65.762 115.132 64.961 117.548 64.116 119.951C64.009 120.256 63.712 120.495 63.502 120.763C63.393 119.376 63.282 117.992 63.171 116.605Z" fill="#C2C1A7"/>
<path fill-rule="evenodd" clip-rule="evenodd" d="M63.503 120.763C63.712 120.494 64.009 120.255 64.117 119.951C64.962 117.549 65.763 115.133 66.602 112.729C66.685 112.493 66.927 112.312 67.096 112.105L66.587 117.65C66.451 117.807 66.254 117.944 66.189 118.127C65.614 119.741 65.072 121.367 64.495 122.981C64.376 123.314 64.148 123.608 63.97 123.919C63.812 123.712 63.529 123.512 63.516 123.296C63.465 122.455 63.5 121.608 63.503 120.763Z" fill="#CECDB7"/>
<path fill-rule="evenodd" clip-rule="evenodd" d="M63.969 123.919C64.147 123.607 64.375 123.313 64.494 122.981C65.072 121.368 65.613 119.742 66.188 118.127C66.253 117.944 66.451 117.808 66.586 117.65L66.598 121.29L65.38 124.414L63.969 123.919Z" fill="#DBDAC7"/>
<path fill-rule="evenodd" clip-rule="evenodd" d="M65.38 124.415L66.598 121.291L66.849 124.987L65.38 124.415Z" fill="#EBE9DC"/>
<path fill-rule="evenodd" clip-rule="evenodd" d="M67.464 110.898C67.268 110.051 67.593 109.38 68.181 108.801L68.518 109.031L67.464 110.898Z" fill="#CECDB7"/>
<path fill-rule="evenodd" clip-rule="evenodd" d="M64.316 95.172L64.25 95.161L64.184 95.171L64.339 94.612L64.316 95.172Z" fill="#4FAA41"/>
</svg>
