<svg width="256" height="256" viewBox="0 0 256 256" fill="none" xmlns="http://www.w3.org/2000/svg">
<path d="M196 0H60C26.8629 0 0 26.8629 0 60V196C0 229.137 26.8629 256 60 256H196C229.137 256 256 229.137 256 196V60C256 26.8629 229.137 0 196 0Z" fill="#F4F4ED"/>
<path d="M136.747 127.656C136.747 85.874 102.8 52 60.913 52H48V85.256H60.92C84.394 85.256 103.42 104.238 103.42 127.656C103.42 151.075 84.394 170.057 60.92 170.057H48V203.313H60.92C102.794 203.313 136.747 169.439 136.747 127.656ZM208 98.146C208 72.658 187.286 52 161.747 52H108.413C121.53 60.1933 132.295 71.6527 139.653 85.256H161.747C168.874 85.256 174.667 91.028 174.667 98.146C174.667 105.262 168.874 111.035 161.747 111.035H148.827C150.913 122.022 150.913 133.303 148.827 144.29H161.747C168.867 144.29 174.667 150.057 174.667 157.181C174.667 164.304 168.874 170.07 161.747 170.07H139.653C132.295 183.673 121.53 195.132 108.413 203.325H161.747C172.552 203.325 183.017 199.55 191.333 192.651C210.954 176.355 213.64 147.263 197.3 127.67C204.21 119.382 207.996 108.935 208 98.145V98.146Z" fill="#F9A03C"/>
</svg>
