<svg width="215" height="118" viewBox="0 0 215 118" fill="none" xmlns="http://www.w3.org/2000/svg">
<g id="Group 14 1">
<path id="Vector" d="M144 53H143V91H144V53Z" fill="#747070"/>
<path id="Vector_2" d="M23.7188 44.6108V41.6562L34.0028 37.3381V40.5696L27.2131 43.1051L27.3196 42.9489V43.3253L27.2131 43.1619L34.0028 45.7045V48.929L23.7188 44.6108ZM186.665 49.4119C185.642 49.4119 184.766 49.0521 184.037 48.3324C183.317 47.6127 182.962 46.7415 182.972 45.7188C182.962 44.715 183.317 43.858 184.037 43.1477C184.766 42.428 185.642 42.0682 186.665 42.0682C187.631 42.0682 188.483 42.428 189.222 43.1477C189.97 43.858 190.349 44.715 190.358 45.7188C190.349 46.4006 190.169 47.0208 189.818 47.5795C189.477 48.1383 189.028 48.5833 188.469 48.9148C187.92 49.2462 187.318 49.4119 186.665 49.4119ZM35.3523 69.5455L25.9773 104.375H22.9091L32.2841 69.5455H35.3523ZM44.8607 95.6108L34.5766 99.929V96.7045L41.3663 94.1619L41.2669 94.3253V93.9489L41.3663 94.1051L34.5766 91.5696V88.3381L44.8607 92.6562V95.6108Z" fill="#747070"/>
<path id="Vector_3" d="M34.7833 19.9091H42.6384L48.789 32.0824H49.0447L55.1952 19.9091H63.0504L52.4112 39.2841V49H45.4225V39.2841L34.7833 19.9091ZM64.8609 49.3693C63.4688 49.3693 62.233 49.1373 61.1535 48.6733C60.0834 48.1998 59.2359 47.4896 58.6109 46.5426C57.9953 45.5862 57.6876 44.3883 57.6876 42.9489C57.6876 41.7367 57.9006 40.714 58.3268 39.8807C58.7529 39.0473 59.34 38.3703 60.0881 37.8494C60.8362 37.3286 61.698 36.9356 62.6734 36.6705C63.6487 36.3958 64.6904 36.2112 65.7984 36.1165C67.0389 36.0028 68.038 35.8845 68.7955 35.7614C69.5531 35.6288 70.1023 35.4441 70.4433 35.2074C70.7936 34.9612 70.9688 34.6155 70.9688 34.1705V34.0994C70.9688 33.3703 70.7179 32.8068 70.216 32.4091C69.7141 32.0114 69.037 31.8125 68.1847 31.8125C67.2662 31.8125 66.5275 32.0114 65.9688 32.4091C65.4101 32.8068 65.055 33.3561 64.9035 34.0568L58.4972 33.8295C58.6866 32.5038 59.1743 31.3201 59.9603 30.2784C60.7558 29.2273 61.8448 28.4034 63.2273 27.8068C64.6194 27.2008 66.2908 26.8977 68.2415 26.8977C69.6336 26.8977 70.9167 27.0634 72.091 27.3949C73.2652 27.7169 74.288 28.1903 75.1592 28.8153C76.0304 29.4309 76.7027 30.1884 77.1762 31.0881C77.6592 31.9877 77.9006 33.0152 77.9006 34.1705V49H71.3665V45.9602H71.1961C70.8078 46.6989 70.3107 47.3239 69.7046 47.8352C69.108 48.3466 68.4025 48.7301 67.5881 48.9858C66.7832 49.2415 65.8741 49.3693 64.8609 49.3693ZM67.0058 44.8239C67.7539 44.8239 68.4262 44.6723 69.0228 44.3693C69.6289 44.0663 70.1118 43.6496 70.4717 43.1193C70.8315 42.5795 71.0114 41.9545 71.0114 41.2443V39.1705C70.8126 39.2746 70.5711 39.3693 70.287 39.4545C70.0124 39.5398 69.7094 39.6203 69.3779 39.696C69.0465 39.7718 68.7056 39.8381 68.3552 39.8949C68.0048 39.9517 67.6686 40.0038 67.3467 40.0511C66.6933 40.1553 66.1345 40.3163 65.6705 40.5341C65.216 40.7519 64.8656 41.036 64.6194 41.3864C64.3826 41.7273 64.2643 42.1345 64.2643 42.608C64.2643 43.3277 64.52 43.8769 65.0313 44.2557C65.5522 44.6345 66.2103 44.8239 67.0058 44.8239ZM83.6245 49L77.9427 27.1818H84.9171L87.8575 41.1591H88.0421L91.1955 27.1818H97.9995L101.238 41.0597H101.423L104.278 27.1818H111.252L105.556 49H98.1273L94.7183 36.2869H94.4768L91.0677 49H83.6245ZM130.488 33.8438L124.11 34.0142C124.044 33.5597 123.864 33.1572 123.571 32.8068C123.277 32.447 122.894 32.1676 122.42 31.9688C121.956 31.7604 121.416 31.6562 120.801 31.6562C119.996 31.6562 119.309 31.8172 118.741 32.1392C118.182 32.4612 117.908 32.8968 117.917 33.446C117.908 33.8722 118.078 34.2415 118.429 34.554C118.788 34.8665 119.428 35.1174 120.346 35.3068L124.551 36.1023C126.729 36.5189 128.348 37.2102 129.409 38.1761C130.479 39.142 131.019 40.4205 131.028 42.0114C131.019 43.5076 130.574 44.8097 129.693 45.9176C128.822 47.0256 127.628 47.8873 126.113 48.5028C124.598 49.1089 122.865 49.4119 120.914 49.4119C117.799 49.4119 115.342 48.7727 113.542 47.4943C111.752 46.2064 110.73 44.483 110.474 42.3239L117.335 42.1534C117.486 42.9489 117.879 43.5549 118.514 43.9716C119.148 44.3883 119.958 44.5966 120.943 44.5966C121.833 44.5966 122.557 44.4309 123.116 44.0994C123.675 43.768 123.959 43.3277 123.968 42.7784C123.959 42.286 123.741 41.893 123.315 41.5994C122.889 41.2964 122.221 41.0597 121.312 40.8892L117.505 40.1648C115.318 39.767 113.689 39.0331 112.619 37.9631C111.549 36.8835 111.019 35.5104 111.028 33.8438C111.019 32.3854 111.407 31.1402 112.193 30.108C112.979 29.0663 114.096 28.2708 115.545 27.7216C116.994 27.1723 118.703 26.8977 120.673 26.8977C123.627 26.8977 125.957 27.518 127.662 28.7585C129.366 29.9896 130.308 31.6847 130.488 33.8438ZM142.032 49.4119C139.741 49.4119 137.771 48.9432 136.123 48.0057C134.485 47.0587 133.221 45.7424 132.331 44.0568C131.45 42.3617 131.01 40.3968 131.01 38.1619C131.01 35.9176 131.45 33.9527 132.331 32.267C133.221 30.572 134.485 29.2557 136.123 28.3182C137.771 27.3712 139.741 26.8977 142.032 26.8977C144.324 26.8977 146.289 27.3712 147.927 28.3182C149.575 29.2557 150.839 30.572 151.72 32.267C152.61 33.9527 153.055 35.9176 153.055 38.1619C153.055 40.3968 152.61 42.3617 151.72 44.0568C150.839 45.7424 149.575 47.0587 147.927 48.0057C146.289 48.9432 144.324 49.4119 142.032 49.4119ZM142.075 44.1705C142.908 44.1705 143.614 43.9148 144.192 43.4034C144.769 42.892 145.21 42.1818 145.513 41.2727C145.825 40.3636 145.981 39.3125 145.981 38.1193C145.981 36.9072 145.825 35.8466 145.513 34.9375C145.21 34.0284 144.769 33.3182 144.192 32.8068C143.614 32.2955 142.908 32.0398 142.075 32.0398C141.213 32.0398 140.484 32.2955 139.888 32.8068C139.3 33.3182 138.851 34.0284 138.538 34.9375C138.235 35.8466 138.084 36.9072 138.084 38.1193C138.084 39.3125 138.235 40.3636 138.538 41.2727C138.851 42.1818 139.3 42.892 139.888 43.4034C140.484 43.9148 141.213 44.1705 142.075 44.1705ZM160.959 36.5568V49H154.013V27.1818H160.619V31.1875H160.86C161.343 29.8523 162.167 28.8059 163.332 28.0483C164.496 27.2812 165.884 26.8977 167.494 26.8977C169.028 26.8977 170.358 27.2434 171.485 27.9347C172.621 28.6165 173.502 29.5729 174.127 30.804C174.762 32.0256 175.074 33.4555 175.065 35.0938V49H168.119V36.4574C168.128 35.2453 167.82 34.2983 167.195 33.6165C166.58 32.9347 165.723 32.5938 164.624 32.5938C163.895 32.5938 163.251 32.7547 162.692 33.0767C162.143 33.3892 161.717 33.839 161.414 34.4261C161.12 35.0133 160.969 35.7235 160.959 36.5568ZM80.0364 85H69.1273L73.9568 55.9091H84.5392C87.4937 55.9091 89.9559 56.5104 91.9256 57.7131C93.9047 58.9062 95.3015 60.6203 96.1159 62.8551C96.9398 65.0805 97.096 67.732 96.5847 70.8097C96.0922 73.7831 95.1026 76.3305 93.6159 78.4517C92.1386 80.5729 90.2447 82.197 87.9341 83.3239C85.6235 84.4413 82.9909 85 80.0364 85ZM77.1386 79.0057H80.4767C82.1055 79.0057 83.5449 78.7121 84.7949 78.125C86.0544 77.5284 87.096 76.5767 87.9199 75.2699C88.7437 73.9536 89.3309 72.2254 89.6812 70.0852C90.0222 68.0398 90.008 66.4252 89.6386 65.2415C89.2788 64.0483 88.578 63.196 87.5364 62.6847C86.5042 62.1638 85.1547 61.9034 83.4881 61.9034H79.9937L77.1386 79.0057ZM105.088 85.4119C102.806 85.4119 100.912 84.9621 99.4062 84.0625C97.91 83.1534 96.8589 81.8608 96.2528 80.1847C95.6468 78.4991 95.5379 76.4962 95.9261 74.1761C96.3049 71.9223 97.0767 69.9527 98.2415 68.267C99.4157 66.572 100.893 65.2557 102.673 64.3182C104.454 63.3712 106.438 62.8977 108.625 62.8977C110.178 62.8977 111.556 63.1392 112.759 63.6222C113.961 64.1051 114.955 64.8248 115.741 65.7812C116.527 66.7282 117.063 67.893 117.347 69.2756C117.631 70.6581 117.621 72.2443 117.318 74.0341L117.048 75.767H98.0994L98.7386 71.733H111.239C111.352 70.9943 111.291 70.3362 111.054 69.7585C110.817 69.1809 110.434 68.7311 109.903 68.4091C109.383 68.0777 108.743 67.9119 107.986 67.9119C107.219 67.9119 106.499 68.0919 105.827 68.4517C105.164 68.8021 104.6 69.2756 104.136 69.8722C103.672 70.4687 103.369 71.1411 103.227 71.8892L102.474 76.0227C102.323 76.9413 102.366 77.7273 102.602 78.3807C102.839 79.0341 103.246 79.536 103.824 79.8864C104.402 80.2273 105.145 80.3977 106.054 80.3977C106.66 80.3977 107.228 80.3172 107.759 80.1562C108.289 79.9858 108.762 79.7348 109.179 79.4034C109.605 79.0625 109.951 78.6506 110.216 78.1676L116.551 78.3523C116.04 79.7822 115.249 81.0275 114.179 82.0881C113.109 83.1392 111.802 83.9583 110.259 84.5455C108.724 85.1231 107.001 85.4119 105.088 85.4119ZM139.863 63.1818L128.741 85H120.786L116.951 63.1818H124.011L125.545 78.2102H125.772L132.292 63.1818H139.863Z" fill="#00B0FC"/>
</g>
</svg>
