<svg width="32" height="32" viewBox="0 0 32 32" fill="none" xmlns="http://www.w3.org/2000/svg">
<path d="M16 30C15.6222 30.0002 15.2511 29.9008 14.924 29.712L11.5 27.685C10.989 27.399 11.238 27.298 11.407 27.239C11.9504 27.0711 12.4708 26.836 12.956 26.539C12.9966 26.5202 13.0413 26.5121 13.0859 26.5154C13.1306 26.5188 13.1736 26.5334 13.211 26.558L15.842 28.121C15.891 28.1469 15.9455 28.1605 16.001 28.1605C16.0564 28.1605 16.111 28.1469 16.16 28.121L26.42 22.199C26.468 22.1702 26.5077 22.1295 26.5352 22.0808C26.5627 22.032 26.5771 21.977 26.577 21.921V10.075C26.577 10.0182 26.5624 9.96225 26.5345 9.91268C26.5067 9.86311 26.4665 9.82155 26.418 9.79201L16.158 3.87501C16.1096 3.84776 16.055 3.83344 15.9995 3.83344C15.9439 3.83344 15.8893 3.84776 15.841 3.87501L5.58697 9.79401C5.53806 9.82293 5.49744 9.864 5.46906 9.91323C5.44068 9.96246 5.42549 10.0182 5.42497 10.075V21.916C5.42511 21.9719 5.44009 22.0267 5.46838 22.0748C5.49667 22.1229 5.53725 22.1627 5.58597 22.19L8.39997 23.814C9.92497 24.576 10.859 23.678 10.859 22.776V11.085C10.859 11.0054 10.8906 10.9291 10.9468 10.8729C11.0031 10.8166 11.0794 10.785 11.159 10.785H12.459C12.5385 10.785 12.6148 10.8166 12.6711 10.8729C12.7274 10.9291 12.759 11.0054 12.759 11.085V22.777C12.759 24.812 11.651 25.977 9.72097 25.977C8.88835 25.9915 8.06878 25.7688 7.35797 25.335L4.66097 23.788C4.33356 23.5973 4.06188 23.3241 3.87308 22.9956C3.68427 22.6672 3.58492 22.2949 3.58497 21.916V10.075C3.58399 9.69554 3.68292 9.32249 3.87179 8.99337C4.06067 8.66424 4.33284 8.39062 4.66097 8.20001L14.922 2.27601C15.2525 2.09518 15.6232 2.0004 16 2.0004C16.3767 2.0004 16.7474 2.09518 17.078 2.27601L27.338 8.20001C27.6653 8.3903 27.9371 8.66313 28.1261 8.99126C28.315 9.31939 28.4147 9.69135 28.415 10.07V21.916C28.4144 22.2949 28.3147 22.667 28.1258 22.9954C27.9368 23.3238 27.6652 23.5971 27.338 23.788L17.078 29.712C16.7502 29.9011 16.3784 30.0005 16 30Z" fill="#83CD29"/>
<path d="M14.054 17.953C14.054 17.8734 14.0856 17.7971 14.1418 17.7409C14.1981 17.6846 14.2744 17.653 14.354 17.653H15.681C15.7519 17.6532 15.8204 17.6786 15.8744 17.7245C15.9284 17.7705 15.9644 17.834 15.976 17.904C16.176 19.255 16.776 19.936 19.489 19.936C21.65 19.936 22.571 19.447 22.571 18.3C22.571 17.639 22.31 17.148 18.951 16.819C16.143 16.541 14.407 15.919 14.407 13.675C14.407 11.605 16.152 10.37 19.077 10.37C22.364 10.37 23.991 11.511 24.197 13.959C24.2001 13.9999 24.1948 14.0409 24.1815 14.0797C24.1681 14.1185 24.147 14.1541 24.1194 14.1843C24.0917 14.2146 24.0582 14.2389 24.0208 14.2557C23.9834 14.2725 23.9429 14.2814 23.902 14.282H22.566C22.4989 14.2811 22.4342 14.2577 22.382 14.2157C22.3298 14.1736 22.2931 14.1153 22.278 14.05C21.959 12.629 21.178 12.175 19.078 12.175C16.718 12.175 16.444 12.997 16.444 13.613C16.444 14.359 16.768 14.577 19.954 14.998C23.107 15.415 24.605 16.005 24.605 18.221C24.605 20.457 22.741 21.737 19.49 21.737C14.995 21.743 14.054 19.682 14.054 17.953Z" fill="#83CD29"/>
</svg>
