<svg width="82" height="82" viewBox="0 0 82 82" fill="none" xmlns="http://www.w3.org/2000/svg">
<path d="M12.0527 73.11L5.61188 0.866089H76.3881L69.9409 73.0991L40.9571 81.1345L12.0527 73.11Z" fill="#1572B6"/>
<path d="M41.0006 74.9929L64.4212 68.4995L69.9312 6.77271H41.0006V74.9929Z" fill="#33A9DC"/>
<path d="M41.0006 32.9467H52.7253L53.5351 23.8735H41.0006V15.0131H63.2188L63.0061 17.3904L60.828 41.8072H41.0006V32.9467Z" fill="white"/>
<path d="M41.0532 55.958L41.0141 55.9695L31.1465 53.3051L30.5155 46.2384H21.6224L22.8633 60.1509L41.0128 65.1881L41.0532 65.1766V55.958Z" fill="#EBEBEB"/>
<path d="M51.972 41.4324L50.9047 53.298L41.0224 55.9656V65.1842L59.1867 60.1502L59.3199 58.653L60.8613 41.4324H51.972Z" fill="white"/>
<path d="M41.0307 15.0131V23.8735H19.6287L19.4513 21.8825L19.0477 17.3904L18.8356 15.0131H41.0307ZM41.0006 32.948V41.8085H31.2574L31.0799 39.8174L30.6757 35.3254L30.4643 32.948H41.0006Z" fill="#EBEBEB"/>
</svg>
