<svg width="38" height="39" viewBox="0 0 38 39" fill="none" xmlns="http://www.w3.org/2000/svg">
<path d="M19.2499 0.75C16.7877 0.75 14.3495 1.24702 12.0746 2.21269C9.79977 3.17836 7.73279 4.59377 5.99169 6.37809C2.47538 9.9817 0.499939 14.8692 0.499939 19.9655C0.499939 28.4588 5.88119 35.6646 13.3249 38.2202C14.2624 38.374 14.5624 37.7783 14.5624 37.2595V34.012C9.36869 35.165 8.26244 31.4372 8.26244 31.4372C7.39994 29.2082 6.18119 28.6125 6.18119 28.6125C4.47494 27.4211 6.31244 27.4596 6.31244 27.4596C8.18744 27.5941 9.18119 29.4387 9.18119 29.4387C10.8124 32.3595 13.5687 31.4948 14.6374 31.0336C14.8062 29.7846 15.2937 28.9391 15.8187 28.4588C11.6562 27.9784 7.28744 26.3258 7.28744 19.0047C7.28744 16.8718 7.99994 15.1616 9.21869 13.7973C9.03119 13.3169 8.37494 11.3185 9.40619 8.72443C9.40619 8.72443 10.9812 8.20562 14.5624 10.6844C16.0437 10.2617 17.6562 10.0503 19.2499 10.0503C20.8437 10.0503 22.4562 10.2617 23.9374 10.6844C27.5187 8.20562 29.0937 8.72443 29.0937 8.72443C30.1249 11.3185 29.4687 13.3169 29.2812 13.7973C30.4999 15.1616 31.2124 16.8718 31.2124 19.0047C31.2124 26.3451 26.8249 27.9592 22.6437 28.4395C23.3187 29.0352 23.9374 30.2074 23.9374 31.9944V37.2595C23.9374 37.7783 24.2374 38.3932 25.1937 38.2202C32.6374 35.6454 37.9999 28.4588 37.9999 19.9655C37.9999 17.4421 37.515 14.9434 36.5727 12.612C35.6304 10.2807 34.2493 8.16242 32.5082 6.37809C30.7671 4.59377 28.7001 3.17836 26.4253 2.21269C24.1504 1.24702 21.7122 0.75 19.2499 0.75Z" fill="#666"/>
</svg>
