<svg width="82" height="82" viewBox="0 0 82 82" fill="none" xmlns="http://www.w3.org/2000/svg">
<path d="M15.1239 69.7026L9.36594 5.125H72.6341L66.8684 69.6923L40.9616 76.875L15.1239 69.7026Z" fill="#E44F26"/>
<path d="M41 71.3862L61.9356 65.5821L66.8607 10.4064H41V71.3862Z" fill="#F1662A"/>
<path d="M41 34.3555H30.5194L29.7968 26.2451H41V18.3245H21.1406L21.3303 20.4513L23.2752 42.2761H41V34.3555ZM41 54.9247L40.9641 54.9349L32.144 52.5543L31.5803 46.2378H23.6288L24.7384 58.671L40.9641 63.1759L41 63.1657V54.9247Z" fill="#EBEBEB"/>
<path d="M40.9718 34.3555V42.2761H50.7247L49.8073 52.5492L40.9718 54.9323V63.1733L57.2104 58.671L57.3282 57.3334L59.1886 36.4823L59.3834 34.3555H40.9718ZM40.9718 18.3245V26.2451H60.1034L60.2623 24.4668L60.6236 20.4513L60.8132 18.3245H40.9718Z" fill="white"/>
</svg>
