<svg width="82" height="82" viewBox="0 0 82 82" fill="none" xmlns="http://www.w3.org/2000/svg">
<path d="M5.125 5.125H76.875V76.875H5.125V5.125Z" fill="#F5DE19"/>
<path d="M53.3231 61.1797C53.9344 62.4214 54.8842 63.4652 56.063 64.1906C57.2418 64.916 58.6015 65.2935 59.9856 65.2797C62.7787 65.2797 64.5647 63.8831 64.5647 61.9484C64.5647 59.6422 62.73 58.817 59.655 57.4717L57.9689 56.7491C53.1001 54.676 49.8714 52.0802 49.8714 46.5913C49.8714 41.5355 53.7151 37.6841 59.7447 37.6841C61.6966 37.5431 63.6467 37.98 65.3519 38.9401C67.0572 39.9003 68.4419 41.3412 69.3336 43.0833L64.0625 46.453C63.7192 45.5892 63.1214 44.8502 62.3484 44.334C61.5755 43.8178 60.6638 43.5487 59.7344 43.5625C59.3289 43.5219 58.9195 43.5662 58.532 43.6926C58.1446 43.819 57.7878 44.0247 57.4843 44.2967C57.1808 44.5686 56.9372 44.9008 56.7692 45.272C56.6011 45.6433 56.5123 46.0455 56.5082 46.453C56.5082 48.4748 57.7613 49.2948 60.6544 50.553L62.3405 51.2756C68.0702 53.733 71.3092 56.2366 71.3092 61.8664C71.3092 67.937 66.5404 71.2631 60.1367 71.2631C57.6417 71.4221 55.1539 70.8556 52.9736 69.632C50.7933 68.4084 49.0137 66.58 47.8496 64.3674L53.3231 61.1797ZM29.5046 61.7639C30.5629 63.6422 31.5264 65.231 33.8429 65.231C36.0569 65.231 37.4561 64.3648 37.4561 60.9952V38.0685H44.198V61.0848C44.198 68.0651 40.098 71.2426 34.1299 71.2426C32.0204 71.3579 29.9253 70.8322 28.1201 69.7345C26.3149 68.6368 24.8841 67.0186 24.0157 65.0926L29.5046 61.7639Z" fill="black"/>
</svg>
