<svg width="82" height="82" viewBox="0 0 82 82" fill="none" xmlns="http://www.w3.org/2000/svg">
<path d="M69.1142 55.9906C69.4606 55.7605 69.7486 55.429 69.9493 55.0294C70.1501 54.6298 70.2564 54.1762 70.2577 53.714L70.2987 38.4655C70.2999 38.0033 70.4062 37.5496 70.6069 37.1499C70.8076 36.7502 71.0957 36.4187 71.4422 36.1885L78.5877 31.4405C78.934 31.2104 79.3265 31.0896 79.7259 31.0904C80.1253 31.0911 80.5175 31.2133 80.8631 31.4447C81.2088 31.6761 81.4958 32.0086 81.6953 32.4088C81.8949 32.809 81.9999 33.2629 82 33.7248V61.4474C82 61.911 81.8943 62.3663 81.6935 62.7675C81.4927 63.1686 81.204 63.5014 80.8565 63.7322L53.8894 81.6501C53.5449 81.8789 53.1546 81.9995 52.7574 82C52.3601 82.0005 51.9697 81.8807 51.6248 81.6527L30.4617 67.6502C30.1131 67.4199 29.8232 67.0871 29.6215 66.6855C29.4199 66.2838 29.3136 65.8277 29.3134 65.3632V51.3845C29.3134 51.3689 29.3294 51.3586 29.3432 51.366C29.3544 51.3741 29.3704 51.366 29.3704 51.3474V51.3319C29.3704 51.3215 29.3749 51.3107 29.3842 51.3056L46.8143 39.7223C46.8303 39.7116 46.8233 39.6827 46.805 39.6827C46.8002 39.6827 46.7955 39.6804 46.7921 39.6765C46.7887 39.6725 46.7868 39.6671 46.7868 39.6615L46.821 25.957C46.8227 25.4935 46.7186 25.0378 46.5193 24.6357C46.3201 24.2337 46.0327 23.8995 45.6861 23.667C45.3396 23.4345 44.9461 23.3118 44.5455 23.3114C44.1449 23.3109 43.7512 23.4327 43.4043 23.6645L30.4502 32.2998C30.1045 32.5301 29.7125 32.6513 29.3136 32.6513C28.9146 32.6513 28.5227 32.5301 28.1769 32.2998L15.1819 23.6441C14.8357 23.4135 14.4431 23.2922 14.0436 23.2925C13.6441 23.2928 13.2517 23.4146 12.9057 23.6458C12.5598 23.877 12.2725 24.2093 12.0727 24.6095C11.8729 25.0097 11.7676 25.4637 11.7673 25.9259V50.6946C11.7676 51.1562 11.6631 51.6098 11.4641 52.01C11.2652 52.4102 10.9788 52.7429 10.6337 52.9748C10.2887 53.2067 9.89698 53.3297 9.4979 53.3314C9.09883 53.3331 8.70637 53.2134 8.35984 52.9845L1.148 48.2142C0.798784 47.9834 0.508607 47.6499 0.306968 47.2473C0.105329 46.8448 -0.000581392 46.3877 2.40045e-06 45.9225L0.0640649 2.62928C0.0650866 2.1679 0.170821 1.71492 0.370692 1.31564C0.570562 0.916375 0.857561 0.584815 1.20298 0.354134C1.5484 0.123453 1.94012 0.00173773 2.33897 0.0011642C2.73782 0.000590672 3.1298 0.121179 3.47571 0.350866L28.1792 16.7633C28.5244 16.9926 28.9155 17.1133 29.3136 17.1133C29.7116 17.1133 30.1028 16.9926 30.4479 16.7633L55.144 0.350125C55.4905 0.119896 55.8832 -0.000851003 56.2828 4.51468e-06C56.6824 0.000860032 57.0747 0.123288 57.4204 0.354999C57.7662 0.58671 58.0531 0.91955 58.2525 1.32011C58.4519 1.72067 58.5567 2.17485 58.5563 2.63706V45.9402C58.5565 46.4035 58.4512 46.8586 58.2509 47.2597C58.0506 47.6608 57.7624 47.9938 57.4154 48.2249L44.4818 56.8413C44.1344 57.073 43.846 57.4066 43.6457 57.8085C43.4455 58.2104 43.3405 58.6663 43.3414 59.1302C43.3424 59.594 43.4491 60.0494 43.6509 60.4502C43.8527 60.8511 44.1424 61.1832 44.4908 61.413L51.6251 66.1114C51.9699 66.3383 52.3599 66.4572 52.7566 66.4563C53.1533 66.4553 53.5429 66.3345 53.8868 66.1058L69.1145 55.9902L69.1142 55.9906ZM70.6106 17.1457C70.6109 17.6117 70.7181 18.0693 70.9211 18.4718C71.1242 18.8743 71.4159 19.2073 71.7664 19.4368C72.117 19.6664 72.514 19.7842 72.9168 19.7784C73.3196 19.7726 73.7139 19.6433 74.0595 19.4037L80.893 14.6609C81.2303 14.4271 81.5096 14.0962 81.7036 13.7005C81.8976 13.3048 81.9997 12.8578 82 12.4028V2.73747C81.9993 2.27168 81.8919 1.81442 81.6887 1.41229C81.4855 1.01015 81.1937 0.677523 80.8432 0.448287C80.4927 0.219051 80.0959 0.101404 79.6933 0.107332C79.2906 0.11326 78.8966 0.242553 78.5512 0.482035L71.718 5.22487C71.3805 5.45867 71.1012 5.78957 70.9072 6.18534C70.7131 6.58111 70.6109 7.02827 70.6106 7.48327V17.1483V17.1457Z" fill="#007FFF"/>
</svg>
