<svg width="82" height="82" viewBox="0 0 82 82" fill="none" xmlns="http://www.w3.org/2000/svg">
<g clip-path="url(#clip0_2_55)">
<path d="M62.7812 0H19.2188C8.60453 0 0 8.60453 0 19.2188V62.7812C0 73.3955 8.60453 82 19.2188 82H62.7812C73.3955 82 82 73.3955 82 62.7812V19.2188C82 8.60453 73.3955 0 62.7812 0Z" fill="#242938"/>
<path d="M41.0003 47.0703C44.3008 47.0703 46.9761 44.3947 46.9761 41.0945C46.9761 37.7943 44.3008 35.1188 41.0003 35.1188C37.7001 35.1188 35.0246 37.7943 35.0246 41.0945C35.0246 44.3947 37.7001 47.0703 41.0003 47.0703Z" fill="#00D8FF"/>
<path d="M41.0006 28.9445C49.0238 28.9445 56.4772 30.0957 62.0971 32.0307C68.8681 34.3616 73.0312 37.8949 73.0312 41.0946C73.0312 44.4287 68.6193 48.1824 61.3478 50.5915C55.8506 52.4128 48.6167 53.3635 41.0006 53.3635C33.1921 53.3635 25.7976 52.4711 20.2383 50.5713C13.2049 48.1674 8.96875 44.3653 8.96875 41.0946C8.96875 37.9209 12.9438 34.4148 19.6198 32.0874C25.2605 30.1206 32.8977 28.9445 40.9994 28.9445H41.0006Z" stroke="#00D8FF" stroke-width="2.8543"/>
<path d="M30.4236 35.0544C34.432 28.1042 39.1524 22.2226 43.6362 18.3212C49.0379 13.62 54.1789 11.7788 56.9503 13.3769C59.8385 15.0425 60.8863 20.7402 59.3408 28.2426C58.1732 33.9144 55.382 40.6557 51.577 47.2535C47.6759 54.0178 43.2092 59.9776 38.7866 63.8431C33.1905 68.7349 27.7801 70.5053 24.9469 68.8713C22.1976 67.2871 21.1464 62.0913 22.4654 55.1453C23.5798 49.2762 26.3764 42.0727 30.4223 35.0544H30.4236Z" stroke="#00D8FF" stroke-width="2.8543"/>
<path d="M30.4335 47.271C26.4139 40.3286 23.6772 33.3003 22.535 27.4674C21.1598 20.4394 22.132 15.0662 24.9011 13.4633C27.7868 11.7926 33.2459 13.7305 38.9737 18.8164C43.3043 22.6614 47.7512 28.4453 51.5671 35.0367C55.4794 41.7946 58.4116 48.6413 59.5522 54.4031C60.9955 61.6947 59.8273 67.2659 56.9967 68.9043C54.2504 70.4943 49.2244 68.8111 43.8652 64.1992C39.3373 60.3029 34.4929 54.2827 30.4335 47.271Z" stroke="#00D8FF" stroke-width="2.8543"/>
</g>
<defs>
<clipPath id="clip0_2_55">
<rect width="82" height="82" fill="white"/>
</clipPath>
</defs>
</svg>
