<svg width="159" height="167" viewBox="0 0 159 167" fill="none" xmlns="http://www.w3.org/2000/svg">
<path d="M114.162 100.242C114.798 94.7764 115.275 89.3104 115.275 83.6789C115.275 78.0473 114.798 72.5813 114.162 67.1154H141.033C142.305 72.4157 143.1 77.9645 143.1 83.6789C143.1 89.3933 142.305 94.942 141.033 100.242M100.09 146.289C104.86 137.096 108.518 127.158 111.062 116.806H134.514C126.812 130.622 114.592 141.088 100.09 146.289ZM98.103 100.242H60.897C60.102 94.7764 59.625 89.3104 59.625 83.6789C59.625 78.0473 60.102 72.4985 60.897 67.1154H98.103C98.8185 72.4985 99.375 78.0473 99.375 83.6789C99.375 89.3104 98.8185 94.7764 98.103 100.242ZM79.5 149.602C72.9015 139.663 67.575 128.649 64.3155 116.806H94.6845C91.425 128.649 86.0985 139.663 79.5 149.602ZM47.7 50.5519H24.486C32.1089 36.6983 44.3196 26.2159 58.83 21.0689C54.06 30.2616 50.4825 40.1997 47.7 50.5519ZM24.486 116.806H47.7C50.4825 127.158 54.06 137.096 58.83 146.289C44.3501 141.085 32.1565 130.617 24.486 116.806ZM17.967 100.242C16.695 94.942 15.9 89.3933 15.9 83.6789C15.9 77.9645 16.695 72.4157 17.967 67.1154H44.838C44.202 72.5813 43.725 78.0473 43.725 83.6789C43.725 89.3104 44.202 94.7764 44.838 100.242M79.5 17.6734C86.0985 27.6115 91.425 38.709 94.6845 50.5519H64.3155C67.575 38.709 72.9015 27.6115 79.5 17.6734ZM134.514 50.5519H111.062C108.573 40.2946 104.889 30.3933 100.09 21.0689C114.718 26.2864 126.882 36.8042 134.514 50.5519ZM79.5 0.86142C35.5365 0.86142 0 38.1293 0 83.6789C0 105.643 8.37587 126.708 23.285 142.24C30.6673 149.93 39.4313 156.03 49.0767 160.192C58.722 164.354 69.0599 166.496 79.5 166.496C100.585 166.496 120.806 157.771 135.715 142.24C150.624 126.708 159 105.643 159 83.6789C159 72.8031 156.944 62.0339 152.948 51.986C148.953 41.9381 143.097 32.8084 135.715 25.1181C128.333 17.4278 119.569 11.3275 109.923 7.16552C100.278 3.00356 89.9401 0.86142 79.5 0.86142Z" fill="#013769"/>
</svg>
