<svg width="149" height="172" viewBox="0 0 149 172" fill="none" xmlns="http://www.w3.org/2000/svg">
<path d="M47.4554 31.2727V33.7727H49.9554H58.1369H60.6369V31.2727V15.6364V13.1364H58.1369H49.9554H47.4554V15.6364V31.2727ZM47.4554 93.8182V96.3182H49.9554H58.1369H60.6369V93.8182V78.1818V75.6818H58.1369H49.9554H47.4554V78.1818V93.8182ZM47.4554 156.364V158.864H49.9554H58.1369H60.6369V156.364V140.727V138.227H58.1369H49.9554H47.4554V140.727V156.364ZM17.2291 13.1364H14.7291V15.6364V31.2727V33.7727H17.2291H33.5922H36.0922V31.2727V15.6364V13.1364H33.5922H17.2291ZM17.2291 75.6818H14.7291V78.1818V93.8182V96.3182H17.2291H33.5922H36.0922V93.8182V78.1818V75.6818H33.5922H17.2291ZM17.2291 138.227H14.7291V140.727V156.364V158.864H17.2291H33.5922H36.0922V156.364V140.727V138.227H33.5922H17.2291ZM9.04758 2.5H139.952C141.495 2.5 142.953 3.08663 144.011 4.09734C145.064 5.10436 145.634 6.4453 145.634 7.81818V39.0909C145.634 40.4638 145.064 41.8047 144.011 42.8117C142.953 43.8225 141.495 44.4091 139.952 44.4091H9.04758C7.50502 44.4091 6.04721 43.8225 4.98952 42.8117C3.93569 41.8047 3.36603 40.4638 3.36603 39.0909V7.81818C3.36603 6.4453 3.9357 5.10436 4.98952 4.09734C6.04721 3.08663 7.50502 2.5 9.04758 2.5ZM9.04758 65.0455H139.952C141.495 65.0455 142.953 65.6321 144.011 66.6428C145.064 67.6498 145.634 68.9908 145.634 70.3636V101.636C145.634 103.009 145.064 104.35 144.011 105.357C142.953 106.368 141.495 106.955 139.952 106.955H9.04758C7.50501 106.955 6.04721 106.368 4.98952 105.357C3.9357 104.35 3.36603 103.009 3.36603 101.636V70.3636C3.36603 68.9908 3.9357 67.6498 4.98952 66.6428C6.04721 65.6321 7.50502 65.0455 9.04758 65.0455ZM9.04758 127.591H139.952C141.495 127.591 142.953 128.178 144.011 129.188C145.064 130.195 145.634 131.536 145.634 132.909V164.182C145.634 165.555 145.064 166.896 144.011 167.903C142.953 168.913 141.495 169.5 139.952 169.5H9.04758C7.50501 169.5 6.04721 168.913 4.98952 167.903C3.9357 166.896 3.36603 165.555 3.36603 164.182V132.909C3.36603 131.536 3.9357 130.195 4.98952 129.188C6.04721 128.178 7.50501 127.591 9.04758 127.591Z" stroke="#013769" stroke-width="5"/>
</svg>
