<svg width="239" height="176" viewBox="0 0 239 176" fill="none" xmlns="http://www.w3.org/2000/svg">
<path d="M236.156 55C235.402 55 234.679 55.2897 234.145 55.8055C233.612 56.3212 233.312 57.0207 233.312 57.75V167.75C233.312 168.479 233.013 169.179 232.479 169.695C231.946 170.21 231.223 170.5 230.468 170.5H8.65042C7.89619 170.5 7.17286 170.21 6.63954 169.695C6.10622 169.179 5.8066 168.479 5.8066 167.75V57.75C5.8066 57.0207 5.50698 56.3212 4.97366 55.8055C4.44034 55.2897 3.71701 55 2.96278 55C2.20855 55 1.48521 55.2897 0.951894 55.8055C0.418574 56.3212 0.118958 57.0207 0.118958 57.75L0.118958 167.75C0.118958 172.299 3.94674 176 8.65042 176H230.468C235.172 176 239 172.299 239 167.75V57.75C239 57.0207 238.7 56.3212 238.167 55.8055C237.634 55.2897 236.91 55 236.156 55ZM230.468 0H8.65042C3.94674 0 0.118958 3.7015 0.118958 8.25V41.25C0.118958 41.9793 0.418574 42.6788 0.951894 43.1945C1.48521 43.7103 2.20855 44 2.96278 44H236.156C236.91 44 237.634 43.7103 238.167 43.1945C238.7 42.6788 239 41.9793 239 41.25V8.25C239 3.7015 235.172 0 230.468 0ZM233.312 38.5H5.8066V8.25C5.8066 7.52065 6.10622 6.82118 6.63954 6.30546C7.17286 5.78973 7.89619 5.5 8.65042 5.5H230.468C231.223 5.5 231.946 5.78973 232.479 6.30546C233.013 6.82118 233.312 7.52065 233.312 8.25V38.5Z" fill="#013769"/>
<path d="M99.6527 154C100.407 154 101.13 153.71 101.664 153.195C102.197 152.679 102.497 151.979 102.497 151.25V63.25C102.497 62.5207 102.197 61.8212 101.664 61.3055C101.13 60.7897 100.407 60.5 99.6527 60.5H25.7134C24.9591 60.5 24.2358 60.7897 23.7025 61.3055C23.1692 61.8212 22.8695 62.5207 22.8695 63.25V151.25C22.8695 151.979 23.1692 152.679 23.7025 153.195C24.2358 153.71 24.9591 154 25.7134 154H99.6527ZM28.5572 66H96.8089V148.5H28.5572V66ZM128.091 82.5H213.406C214.16 82.5 214.883 82.2103 215.416 81.6945C215.95 81.1788 216.249 80.4793 216.249 79.75C216.249 79.0207 215.95 78.3212 215.416 77.8055C214.883 77.2897 214.16 77 213.406 77H128.091C127.337 77 126.613 77.2897 126.08 77.8055C125.547 78.3212 125.247 79.0207 125.247 79.75C125.247 80.4793 125.547 81.1788 126.08 81.6945C126.613 82.2103 127.337 82.5 128.091 82.5ZM128.091 110H213.406C214.16 110 214.883 109.71 215.416 109.195C215.95 108.679 216.249 107.979 216.249 107.25C216.249 106.521 215.95 105.821 215.416 105.305C214.883 104.79 214.16 104.5 213.406 104.5H128.091C127.337 104.5 126.613 104.79 126.08 105.305C125.547 105.821 125.247 106.521 125.247 107.25C125.247 107.979 125.547 108.679 126.08 109.195C126.613 109.71 127.337 110 128.091 110ZM128.091 137.5H213.406C214.16 137.5 214.883 137.21 215.416 136.695C215.95 136.179 216.249 135.479 216.249 134.75C216.249 134.021 215.95 133.321 215.416 132.805C214.883 132.29 214.16 132 213.406 132H128.091C127.337 132 126.613 132.29 126.08 132.805C125.547 133.321 125.247 134.021 125.247 134.75C125.247 135.479 125.547 136.179 126.08 136.695C126.613 137.21 127.337 137.5 128.091 137.5Z" fill="#013769"/>
<path d="M22.8695 27.5C26.0107 27.5 28.5571 25.0376 28.5571 22C28.5571 18.9624 26.0107 16.5 22.8695 16.5C19.7283 16.5 17.1819 18.9624 17.1819 22C17.1819 25.0376 19.7283 27.5 22.8695 27.5Z" fill="#013769"/>
<path d="M45.6201 27.5C48.7613 27.5 51.3078 25.0376 51.3078 22C51.3078 18.9624 48.7613 16.5 45.6201 16.5C42.4789 16.5 39.9325 18.9624 39.9325 22C39.9325 25.0376 42.4789 27.5 45.6201 27.5Z" fill="#013769"/>
<path d="M68.3707 27.5C71.5119 27.5 74.0583 25.0376 74.0583 22C74.0583 18.9624 71.5119 16.5 68.3707 16.5C65.2295 16.5 62.683 18.9624 62.683 22C62.683 25.0376 65.2295 27.5 68.3707 27.5Z" fill="#013769"/>
</svg>
