<svg width="25" height="25" viewBox="0 0 25 25" fill="none" xmlns="http://www.w3.org/2000/svg">
<path d="M19.5 3.5C20.0304 3.5 20.5391 3.71071 20.9142 4.08579C21.2893 4.46086 21.5 4.96957 21.5 5.5V19.5C21.5 20.0304 21.2893 20.5391 20.9142 20.9142C20.5391 21.2893 20.0304 21.5 19.5 21.5H5.5C4.96957 21.5 4.46086 21.2893 4.08579 20.9142C3.71071 20.5391 3.5 20.0304 3.5 19.5V5.5C3.5 4.96957 3.71071 4.46086 4.08579 4.08579C4.46086 3.71071 4.96957 3.5 5.5 3.5H19.5ZM19 19V13.7C19 12.8354 18.6565 12.0062 18.0452 11.3948C17.4338 10.7835 16.6046 10.44 15.74 10.44C14.89 10.44 13.9 10.96 13.42 11.74V10.63H10.63V19H13.42V14.07C13.42 13.3 14.04 12.67 14.81 12.67C15.1813 12.67 15.5374 12.8175 15.7999 13.0801C16.0625 13.3426 16.21 13.6987 16.21 14.07V19H19ZM7.38 9.06C7.82556 9.06 8.25288 8.883 8.56794 8.56794C8.883 8.25288 9.06 7.82556 9.06 7.38C9.06 6.45 8.31 5.69 7.38 5.69C6.93178 5.69 6.50193 5.86805 6.18499 6.18499C5.86805 6.50193 5.69 6.93178 5.69 7.38C5.69 8.31 6.45 9.06 7.38 9.06ZM8.77 19V10.63H6V19H8.77Z" fill="black"/>
</svg>
