<svg width="31" height="31" viewBox="0 0 31 31" fill="none" xmlns="http://www.w3.org/2000/svg">
<path class="socials" d="M30.4825 23.1619C30.2151 25.1945 29.2169 27.0602 27.6743 28.4106C26.1318 29.7609 24.1505 30.5037 22.1004 30.5C10.1902 30.5 0.500014 20.8099 0.500014 8.89978C0.496339 6.84969 1.23906 4.86837 2.58945 3.32587C3.93984 1.78336 5.80556 0.785159 7.83814 0.517697C8.35213 0.454937 8.87263 0.56009 9.32195 0.817457C9.77126 1.07482 10.1253 1.4706 10.3312 1.94571L13.4992 9.01828V9.03628C13.6569 9.39996 13.722 9.79703 13.6887 10.192C13.6555 10.587 13.5249 10.9676 13.3087 11.2998C13.2817 11.3403 13.2532 11.3778 13.2232 11.4153L10.1002 15.1173C11.2237 17.4004 13.6117 19.7674 15.9248 20.8939L19.5758 17.7874C19.6117 17.7572 19.6493 17.7292 19.6883 17.7034C20.0203 17.482 20.4022 17.3468 20.7995 17.3102C21.1968 17.2735 21.597 17.3365 21.9639 17.4934L21.9834 17.5024L29.05 20.6689C29.526 20.8741 29.9227 21.2278 30.1809 21.6771C30.4391 22.1265 30.5449 22.6474 30.4825 23.1619Z" fill="#00121D"/>
</svg>
